<mxfile host="app.diagrams.net" agent="Mozilla/5.0 (Windows NT 10.0; Win64; x64) AppleWebKit/537.36 (KHTML, like Gecko) Chrome/138.0.0.0 Safari/537.36" version="27.2.0">
  <diagram name="Page-1" id="X5rNufOgabyKfiXHA2yL">
    <mxGraphModel dx="872" dy="439" grid="1" gridSize="10" guides="1" tooltips="1" connect="1" arrows="1" fold="1" page="1" pageScale="1" pageWidth="850" pageHeight="1100" math="0" shadow="0">
      <root>
        <mxCell id="0" />
        <mxCell id="1" parent="0" />
        <mxCell id="-YSpiscfXhqQJHsy_4WN-1" value="Activity edit data kuisioner" style="swimlane;childLayout=stackLayout;resizeParent=1;resizeParentMax=0;startSize=20;html=1;" vertex="1" parent="1">
          <mxGeometry x="450" y="120" width="610" height="770" as="geometry" />
        </mxCell>
        <mxCell id="-YSpiscfXhqQJHsy_4WN-2" value="Operator" style="swimlane;startSize=20;html=1;" vertex="1" parent="-YSpiscfXhqQJHsy_4WN-1">
          <mxGeometry y="20" width="280" height="750" as="geometry" />
        </mxCell>
        <mxCell id="-YSpiscfXhqQJHsy_4WN-3" value="" style="ellipse;html=1;shape=startState;fillColor=#000000;strokeColor=#ff0000;" vertex="1" parent="-YSpiscfXhqQJHsy_4WN-2">
          <mxGeometry x="128.99999999999955" y="20" width="30" height="30" as="geometry" />
        </mxCell>
        <mxCell id="-YSpiscfXhqQJHsy_4WN-4" value="" style="edgeStyle=orthogonalEdgeStyle;html=1;verticalAlign=bottom;endArrow=open;endSize=8;strokeColor=#ff0000;rounded=0;" edge="1" parent="-YSpiscfXhqQJHsy_4WN-2">
          <mxGeometry relative="1" as="geometry">
            <mxPoint x="143.99999999999955" y="100" as="targetPoint" />
            <mxPoint x="144" y="70" as="sourcePoint" />
          </mxGeometry>
        </mxCell>
        <mxCell id="-YSpiscfXhqQJHsy_4WN-5" value="klik tombol edit data kuisioner" style="rounded=1;whiteSpace=wrap;html=1;arcSize=40;fontColor=#000000;fillColor=#ffffc0;strokeColor=#ff0000;" vertex="1" parent="-YSpiscfXhqQJHsy_4WN-2">
          <mxGeometry x="83.99999999999955" y="222" width="120" height="40" as="geometry" />
        </mxCell>
        <mxCell id="-YSpiscfXhqQJHsy_4WN-6" value="form dibuka" style="rounded=1;whiteSpace=wrap;html=1;arcSize=40;fontColor=#000000;fillColor=#ffffc0;strokeColor=#ff0000;" vertex="1" parent="-YSpiscfXhqQJHsy_4WN-2">
          <mxGeometry x="84" y="302" width="120" height="40" as="geometry" />
        </mxCell>
        <mxCell id="-YSpiscfXhqQJHsy_4WN-7" value="" style="edgeStyle=orthogonalEdgeStyle;html=1;verticalAlign=bottom;endArrow=open;endSize=8;strokeColor=#ff0000;rounded=0;entryX=0.5;entryY=0;entryDx=0;entryDy=0;" edge="1" parent="-YSpiscfXhqQJHsy_4WN-2" source="-YSpiscfXhqQJHsy_4WN-6" target="-YSpiscfXhqQJHsy_4WN-9">
          <mxGeometry relative="1" as="geometry">
            <mxPoint x="144" y="392" as="targetPoint" />
          </mxGeometry>
        </mxCell>
        <mxCell id="-YSpiscfXhqQJHsy_4WN-8" style="edgeStyle=orthogonalEdgeStyle;rounded=0;orthogonalLoop=1;jettySize=auto;html=1;exitX=0.5;exitY=1;exitDx=0;exitDy=0;entryX=0.5;entryY=0;entryDx=0;entryDy=0;strokeColor=light-dark(#ff0000, #ededed);" edge="1" parent="-YSpiscfXhqQJHsy_4WN-2" source="-YSpiscfXhqQJHsy_4WN-9" target="-YSpiscfXhqQJHsy_4WN-10">
          <mxGeometry relative="1" as="geometry" />
        </mxCell>
        <mxCell id="-YSpiscfXhqQJHsy_4WN-9" value="isi form" style="rounded=1;whiteSpace=wrap;html=1;arcSize=40;fontColor=#000000;fillColor=#ffffc0;strokeColor=#ff0000;" vertex="1" parent="-YSpiscfXhqQJHsy_4WN-2">
          <mxGeometry x="84" y="382" width="120" height="40" as="geometry" />
        </mxCell>
        <mxCell id="-YSpiscfXhqQJHsy_4WN-10" value="klik simpan" style="rounded=1;whiteSpace=wrap;html=1;arcSize=40;fontColor=#000000;fillColor=#ffffc0;strokeColor=#ff0000;" vertex="1" parent="-YSpiscfXhqQJHsy_4WN-2">
          <mxGeometry x="84" y="462" width="120" height="40" as="geometry" />
        </mxCell>
        <mxCell id="-YSpiscfXhqQJHsy_4WN-11" value="" style="ellipse;html=1;shape=endState;fillColor=#000000;strokeColor=#ff0000;" vertex="1" parent="-YSpiscfXhqQJHsy_4WN-2">
          <mxGeometry x="128.99999999999955" y="712" width="30" height="30" as="geometry" />
        </mxCell>
        <mxCell id="-YSpiscfXhqQJHsy_4WN-12" value="melihat notifikasi" style="rounded=1;whiteSpace=wrap;html=1;arcSize=40;fontColor=#000000;fillColor=#ffffc0;strokeColor=#ff0000;" vertex="1" parent="-YSpiscfXhqQJHsy_4WN-2">
          <mxGeometry x="84" y="637" width="120" height="40" as="geometry" />
        </mxCell>
        <mxCell id="-YSpiscfXhqQJHsy_4WN-13" value="" style="edgeStyle=orthogonalEdgeStyle;html=1;verticalAlign=bottom;endArrow=open;endSize=8;strokeColor=#ff0000;rounded=0;" edge="1" parent="-YSpiscfXhqQJHsy_4WN-2" source="-YSpiscfXhqQJHsy_4WN-12">
          <mxGeometry relative="1" as="geometry">
            <mxPoint x="144" y="712" as="targetPoint" />
          </mxGeometry>
        </mxCell>
        <mxCell id="-YSpiscfXhqQJHsy_4WN-14" style="edgeStyle=orthogonalEdgeStyle;rounded=0;orthogonalLoop=1;jettySize=auto;html=1;exitX=0.5;exitY=1;exitDx=0;exitDy=0;entryX=0.5;entryY=0;entryDx=0;entryDy=0;" edge="1" parent="-YSpiscfXhqQJHsy_4WN-2" source="-YSpiscfXhqQJHsy_4WN-15" target="-YSpiscfXhqQJHsy_4WN-17">
          <mxGeometry relative="1" as="geometry" />
        </mxCell>
        <mxCell id="-YSpiscfXhqQJHsy_4WN-15" value="masuk halaman kusioner" style="rounded=1;whiteSpace=wrap;html=1;arcSize=40;fontColor=#000000;fillColor=#ffffc0;strokeColor=#ff0000;" vertex="1" parent="-YSpiscfXhqQJHsy_4WN-2">
          <mxGeometry x="84" y="70" width="120" height="40" as="geometry" />
        </mxCell>
        <mxCell id="-YSpiscfXhqQJHsy_4WN-16" style="edgeStyle=orthogonalEdgeStyle;rounded=0;orthogonalLoop=1;jettySize=auto;html=1;exitX=0.5;exitY=1;exitDx=0;exitDy=0;entryX=0.5;entryY=0;entryDx=0;entryDy=0;" edge="1" parent="-YSpiscfXhqQJHsy_4WN-2" source="-YSpiscfXhqQJHsy_4WN-17" target="-YSpiscfXhqQJHsy_4WN-5">
          <mxGeometry relative="1" as="geometry" />
        </mxCell>
        <mxCell id="-YSpiscfXhqQJHsy_4WN-17" value="pilih kuisioner" style="rounded=1;whiteSpace=wrap;html=1;arcSize=40;fontColor=#000000;fillColor=#ffffc0;strokeColor=#ff0000;" vertex="1" parent="-YSpiscfXhqQJHsy_4WN-2">
          <mxGeometry x="84" y="150" width="120" height="40" as="geometry" />
        </mxCell>
        <mxCell id="-YSpiscfXhqQJHsy_4WN-18" style="edgeStyle=orthogonalEdgeStyle;rounded=0;orthogonalLoop=1;jettySize=auto;html=1;exitX=1;exitY=0.5;exitDx=0;exitDy=0;entryX=0;entryY=0.5;entryDx=0;entryDy=0;strokeColor=#FF0000;" edge="1" parent="-YSpiscfXhqQJHsy_4WN-1" source="-YSpiscfXhqQJHsy_4WN-5" target="-YSpiscfXhqQJHsy_4WN-21">
          <mxGeometry relative="1" as="geometry" />
        </mxCell>
        <mxCell id="-YSpiscfXhqQJHsy_4WN-19" value="" style="edgeStyle=orthogonalEdgeStyle;html=1;verticalAlign=bottom;endArrow=open;endSize=8;strokeColor=#ff0000;rounded=0;entryX=0;entryY=0.5;entryDx=0;entryDy=0;" edge="1" parent="-YSpiscfXhqQJHsy_4WN-1" source="-YSpiscfXhqQJHsy_4WN-10" target="-YSpiscfXhqQJHsy_4WN-23">
          <mxGeometry relative="1" as="geometry">
            <mxPoint x="235" y="582" as="targetPoint" />
          </mxGeometry>
        </mxCell>
        <mxCell id="-YSpiscfXhqQJHsy_4WN-20" value="SIstem" style="swimlane;startSize=20;html=1;" vertex="1" parent="-YSpiscfXhqQJHsy_4WN-1">
          <mxGeometry x="280" y="20" width="330" height="750" as="geometry" />
        </mxCell>
        <mxCell id="-YSpiscfXhqQJHsy_4WN-21" value="kirim form tambah data&amp;nbsp;" style="rounded=1;whiteSpace=wrap;html=1;arcSize=40;fontColor=#000000;fillColor=#ffffc0;strokeColor=#ff0000;" vertex="1" parent="-YSpiscfXhqQJHsy_4WN-20">
          <mxGeometry x="120" y="222" width="120" height="40" as="geometry" />
        </mxCell>
        <mxCell id="-YSpiscfXhqQJHsy_4WN-22" style="edgeStyle=orthogonalEdgeStyle;rounded=0;orthogonalLoop=1;jettySize=auto;html=1;exitX=0.5;exitY=1;exitDx=0;exitDy=0;entryX=0.5;entryY=0;entryDx=0;entryDy=0;strokeColor=light-dark(#ff0000, #ededed);" edge="1" parent="-YSpiscfXhqQJHsy_4WN-20" source="-YSpiscfXhqQJHsy_4WN-23" target="-YSpiscfXhqQJHsy_4WN-28">
          <mxGeometry relative="1" as="geometry" />
        </mxCell>
        <mxCell id="-YSpiscfXhqQJHsy_4WN-23" value="validasi data" style="rounded=1;whiteSpace=wrap;html=1;arcSize=40;fontColor=#000000;fillColor=#ffffc0;strokeColor=#ff0000;" vertex="1" parent="-YSpiscfXhqQJHsy_4WN-20">
          <mxGeometry x="100" y="362" width="120" height="40" as="geometry" />
        </mxCell>
        <mxCell id="-YSpiscfXhqQJHsy_4WN-24" style="edgeStyle=orthogonalEdgeStyle;rounded=0;orthogonalLoop=1;jettySize=auto;html=1;exitX=0;exitY=0.5;exitDx=0;exitDy=0;entryX=0.5;entryY=0;entryDx=0;entryDy=0;strokeColor=#FF0000;" edge="1" parent="-YSpiscfXhqQJHsy_4WN-20" source="-YSpiscfXhqQJHsy_4WN-28" target="-YSpiscfXhqQJHsy_4WN-33">
          <mxGeometry relative="1" as="geometry" />
        </mxCell>
        <mxCell id="-YSpiscfXhqQJHsy_4WN-25" value="ya" style="edgeLabel;html=1;align=center;verticalAlign=middle;resizable=0;points=[];" vertex="1" connectable="0" parent="-YSpiscfXhqQJHsy_4WN-24">
          <mxGeometry x="-0.3" y="2" relative="1" as="geometry">
            <mxPoint as="offset" />
          </mxGeometry>
        </mxCell>
        <mxCell id="-YSpiscfXhqQJHsy_4WN-26" style="edgeStyle=orthogonalEdgeStyle;rounded=0;orthogonalLoop=1;jettySize=auto;html=1;exitX=1;exitY=0.5;exitDx=0;exitDy=0;entryX=0.5;entryY=0;entryDx=0;entryDy=0;strokeColor=light-dark(#ff0000, #ededed);" edge="1" parent="-YSpiscfXhqQJHsy_4WN-20" source="-YSpiscfXhqQJHsy_4WN-28">
          <mxGeometry relative="1" as="geometry">
            <mxPoint x="250" y="522" as="targetPoint" />
          </mxGeometry>
        </mxCell>
        <mxCell id="-YSpiscfXhqQJHsy_4WN-27" value="tidak" style="edgeLabel;html=1;align=center;verticalAlign=middle;resizable=0;points=[];" vertex="1" connectable="0" parent="-YSpiscfXhqQJHsy_4WN-26">
          <mxGeometry x="-0.5" y="-1" relative="1" as="geometry">
            <mxPoint as="offset" />
          </mxGeometry>
        </mxCell>
        <mxCell id="-YSpiscfXhqQJHsy_4WN-28" value="valid" style="rhombus;whiteSpace=wrap;html=1;fontColor=#000000;fillColor=#ffffc0;strokeColor=#ff0000;" vertex="1" parent="-YSpiscfXhqQJHsy_4WN-20">
          <mxGeometry x="120" y="452" width="80" height="40" as="geometry" />
        </mxCell>
        <mxCell id="-YSpiscfXhqQJHsy_4WN-29" value="" style="edgeStyle=elbowEdgeStyle;html=1;verticalAlign=bottom;endArrow=open;endSize=8;strokeColor=#ff0000;rounded=0;" edge="1" parent="-YSpiscfXhqQJHsy_4WN-20">
          <mxGeometry relative="1" as="geometry">
            <mxPoint x="-76" y="322" as="targetPoint" />
            <mxPoint x="169" y="262" as="sourcePoint" />
            <Array as="points">
              <mxPoint x="180" y="322" />
            </Array>
          </mxGeometry>
        </mxCell>
        <mxCell id="-YSpiscfXhqQJHsy_4WN-30" value="kirim pesan eror ke user&amp;nbsp;" style="rounded=1;whiteSpace=wrap;html=1;arcSize=40;fontColor=#000000;fillColor=#ffffc0;strokeColor=#ff0000;" vertex="1" parent="-YSpiscfXhqQJHsy_4WN-20">
          <mxGeometry x="190" y="521" width="120" height="40" as="geometry" />
        </mxCell>
        <mxCell id="-YSpiscfXhqQJHsy_4WN-31" value="" style="edgeStyle=orthogonalEdgeStyle;html=1;verticalAlign=bottom;endArrow=open;endSize=8;strokeColor=#ff0000;rounded=0;entryX=1;entryY=0.5;entryDx=0;entryDy=0;" edge="1" parent="-YSpiscfXhqQJHsy_4WN-20" target="-YSpiscfXhqQJHsy_4WN-36">
          <mxGeometry relative="1" as="geometry">
            <mxPoint x="250" y="622" as="targetPoint" />
            <mxPoint x="250" y="562" as="sourcePoint" />
          </mxGeometry>
        </mxCell>
        <mxCell id="-YSpiscfXhqQJHsy_4WN-32" style="edgeStyle=orthogonalEdgeStyle;rounded=0;orthogonalLoop=1;jettySize=auto;html=1;exitX=0.5;exitY=1;exitDx=0;exitDy=0;entryX=0.5;entryY=0;entryDx=0;entryDy=0;strokeColor=#FF0000;" edge="1" parent="-YSpiscfXhqQJHsy_4WN-20" source="-YSpiscfXhqQJHsy_4WN-33" target="-YSpiscfXhqQJHsy_4WN-35">
          <mxGeometry relative="1" as="geometry" />
        </mxCell>
        <mxCell id="-YSpiscfXhqQJHsy_4WN-33" value="simpan data" style="rounded=1;whiteSpace=wrap;html=1;arcSize=40;fontColor=#000000;fillColor=#ffffc0;strokeColor=#ff0000;" vertex="1" parent="-YSpiscfXhqQJHsy_4WN-20">
          <mxGeometry x="10" y="522" width="120" height="40" as="geometry" />
        </mxCell>
        <mxCell id="-YSpiscfXhqQJHsy_4WN-34" style="edgeStyle=orthogonalEdgeStyle;rounded=0;orthogonalLoop=1;jettySize=auto;html=1;exitX=1;exitY=0.5;exitDx=0;exitDy=0;entryX=0.5;entryY=0;entryDx=0;entryDy=0;strokeColor=#FF0000;" edge="1" parent="-YSpiscfXhqQJHsy_4WN-20" source="-YSpiscfXhqQJHsy_4WN-35" target="-YSpiscfXhqQJHsy_4WN-36">
          <mxGeometry relative="1" as="geometry" />
        </mxCell>
        <mxCell id="-YSpiscfXhqQJHsy_4WN-35" value="kirim pesan sukses ke user" style="rounded=1;whiteSpace=wrap;html=1;arcSize=40;fontColor=#000000;fillColor=#ffffc0;strokeColor=#ff0000;" vertex="1" parent="-YSpiscfXhqQJHsy_4WN-20">
          <mxGeometry x="10" y="592" width="120" height="40" as="geometry" />
        </mxCell>
        <mxCell id="-YSpiscfXhqQJHsy_4WN-36" value="" style="rhombus;whiteSpace=wrap;html=1;fontColor=#000000;fillColor=#ffffc0;strokeColor=#ff0000;" vertex="1" parent="-YSpiscfXhqQJHsy_4WN-20">
          <mxGeometry x="160" y="642" width="40" height="30" as="geometry" />
        </mxCell>
        <mxCell id="-YSpiscfXhqQJHsy_4WN-37" style="edgeStyle=orthogonalEdgeStyle;rounded=0;orthogonalLoop=1;jettySize=auto;html=1;exitX=0;exitY=0.5;exitDx=0;exitDy=0;entryX=1;entryY=0.5;entryDx=0;entryDy=0;strokeColor=#FF0000;" edge="1" parent="-YSpiscfXhqQJHsy_4WN-1" source="-YSpiscfXhqQJHsy_4WN-36" target="-YSpiscfXhqQJHsy_4WN-12">
          <mxGeometry relative="1" as="geometry" />
        </mxCell>
      </root>
    </mxGraphModel>
  </diagram>
</mxfile>
